<svg width="550" height="550" viewBox="0 0 550 550" fill="none" xmlns="http://www.w3.org/2000/svg">
<g clip-path="url(#clip0_158_42)">
<rect width="550" height="550" fill="#151515"/>
<path d="M214.467 266.143V310.717H166.374V271.617C166.374 261.451 163.246 254.022 156.99 249.33C150.994 244.377 143.305 241.901 133.921 241.901C127.143 241.901 120.887 242.944 115.153 245.029C109.679 246.854 104.987 249.069 101.077 251.676V310.717H52.9838V248.548C52.9838 242.292 54.2871 237.209 56.8938 233.299C59.5004 229.128 63.4104 225.349 68.6238 221.96C76.7044 216.486 86.6098 212.055 98.3398 208.666C110.33 205.277 122.712 203.583 135.485 203.583C148.257 203.583 159.987 205.538 170.675 209.448C181.362 213.358 190.094 219.093 196.872 226.652C198.696 228.216 200.391 229.78 201.955 231.344C203.519 232.908 204.822 234.733 205.865 236.818C208.211 240.728 210.166 245.29 211.73 250.503C213.554 255.456 214.467 260.669 214.467 266.143ZM327.466 270.053V310.717H279.373V271.617C279.373 261.451 276.505 254.022 270.771 249.33C265.036 244.377 257.346 241.901 247.702 241.901C240.664 241.901 233.756 243.335 226.979 246.202C220.462 249.069 214.858 252.849 210.166 257.541L185.924 228.216C194.004 221.439 203.519 215.704 214.467 211.012C225.415 206.059 238.448 203.583 253.567 203.583C267.382 203.583 279.894 205.799 291.103 210.23C302.311 214.661 311.174 221.83 317.691 231.735C324.207 241.64 327.466 254.413 327.466 270.053ZM52.9838 291.949H101.077V393.218C98.9914 394 95.9938 394.652 92.0838 395.173C88.1738 395.955 83.8728 396.346 79.1808 396.346C70.3181 396.346 63.6711 394.782 59.2398 391.654C55.0691 388.265 52.9838 382.4 52.9838 374.059V291.949ZM166.374 291.949H214.467V393.218C212.381 394 209.253 394.652 205.083 395.173C201.173 395.955 197.002 396.346 192.571 396.346C183.447 396.346 176.8 394.782 172.63 391.654C168.459 388.265 166.374 382.4 166.374 374.059V291.949ZM279.373 291.949H327.466V393.218C325.641 394 322.643 394.652 318.473 395.173C314.563 395.955 310.392 396.346 305.961 396.346C296.837 396.346 290.06 394.782 285.629 391.654C281.458 388.265 279.373 382.4 279.373 374.059V291.949ZM380.663 203.583C397.346 203.583 412.334 207.232 425.628 214.531C439.183 221.569 449.87 232.387 457.69 246.984C465.51 261.321 469.42 279.307 469.42 300.942C469.42 322.838 465.25 341.085 456.908 355.682C448.828 370.279 437.358 381.227 422.5 388.526C407.903 395.825 390.829 399.474 371.279 399.474C356.421 399.474 343.388 397.649 332.179 394C321.231 390.611 311.978 386.571 304.418 381.879C298.944 377.969 294.904 374.059 292.297 370.149C289.951 365.978 288.778 360.895 288.778 354.9V228.607H336.871V351.772C340.26 354.118 344.822 356.334 350.556 358.419C356.552 360.244 363.329 361.156 370.888 361.156C385.746 361.156 397.607 356.203 406.469 346.298C415.593 336.393 420.154 321.274 420.154 300.942C420.154 280.349 415.723 265.361 406.86 255.977C397.998 246.593 386.398 241.901 372.061 241.901C362.938 241.901 354.857 243.595 347.819 246.984C340.781 250.373 334.786 254.283 329.833 258.714L326.705 219.614C332.701 215.965 340.13 212.446 348.992 209.057C358.116 205.408 368.673 203.583 380.663 203.583ZM336.871 239.555H288.778V139.85C290.864 139.329 293.861 138.677 297.771 137.895C301.681 137.113 305.982 136.722 310.674 136.722C319.798 136.722 326.445 138.416 330.615 141.805C334.786 144.933 336.871 150.668 336.871 159.009V239.555Z" fill="white"/>
<path d="M510.998 168.393L440.227 435.055C437.62 435.576 435.013 435.837 432.407 435.837C430.061 436.098 427.715 436.228 425.369 436.228C417.549 436.228 411.553 434.403 407.383 430.754C403.212 427.365 401.127 422.022 401.127 414.723C401.127 409.77 401.909 404.557 403.473 399.083C405.037 393.609 406.34 388.917 407.383 385.007L477.763 118.345C480.63 118.084 483.237 117.954 485.583 117.954C488.189 117.693 490.535 117.563 492.621 117.563C499.919 117.563 505.784 119.257 510.216 122.646C514.647 125.774 516.863 130.987 516.863 138.286C516.863 143.239 516.211 148.322 514.908 153.535C513.604 158.488 512.301 163.44 510.998 168.393Z" fill="#98C379"/>
</g>
<defs>
<clipPath id="clip0_158_42">
<rect width="550" height="550" rx="80" fill="white"/>
</clipPath>
</defs>
</svg>
